<svg xmlns="http://www.w3.org/2000/svg" viewBox="0 0 600 600">
  <defs>
    <linearGradient id="leafFill" x1="0" y1="0" x2="1" y2="1">
      <stop offset="0" stop-color="#2E8B57"/>
      <stop offset="1" stop-color="#1E6F43"/>
    </linearGradient>
    <linearGradient id="leafFillSage" x1="0" y1="0" x2="1" y2="1">
      <stop offset="0" stop-color="#7BAE95"/>
      <stop offset="1" stop-color="#2E8B57"/>
    </linearGradient>
    <linearGradient id="leafFillGold" x1="0" y1="0" x2="1" y2="1">
      <stop offset="0" stop-color="#EADFC6"/>
      <stop offset="1" stop-color="#B0852F"/>
    </linearGradient>
  </defs>

  <!-- Faint scattered leaf field. Each leaf is an inline group (path + midrib)
       transformed into place; fully self-contained for flutter_svg safety. -->
  <g opacity="0.06">
    <!-- Row 1 -->
    <g transform="translate(40 60) rotate(-20)">
      <path d="M0 0 C 26 -14 50 -10 60 18 C 50 46 26 50 0 36 C -8 24 -8 12 0 0 Z" fill="url(#leafFill)"/>
      <path d="M2 6 C 20 8 38 14 54 22" stroke="#123D2A" stroke-width="1.4" fill="none" stroke-linecap="round"/>
    </g>
    <g transform="translate(210 40) rotate(35) scale(0.85)">
      <path d="M0 0 C 26 -14 50 -10 60 18 C 50 46 26 50 0 36 C -8 24 -8 12 0 0 Z" fill="url(#leafFillSage)"/>
      <path d="M2 6 C 20 8 38 14 54 22" stroke="#1E6F43" stroke-width="1.4" fill="none" stroke-linecap="round"/>
    </g>
    <g transform="translate(370 70) rotate(-55) scale(0.9)">
      <path d="M0 0 C 26 -14 50 -10 60 18 C 50 46 26 50 0 36 C -8 24 -8 12 0 0 Z" fill="url(#leafFillGold)"/>
      <path d="M2 6 C 20 8 38 14 54 22" stroke="#B0852F" stroke-width="1.4" fill="none" stroke-linecap="round"/>
    </g>
    <g transform="translate(520 50) rotate(120) scale(0.8)">
      <path d="M0 0 C 26 -14 50 -10 60 18 C 50 46 26 50 0 36 C -8 24 -8 12 0 0 Z" fill="url(#leafFill)"/>
      <path d="M2 6 C 20 8 38 14 54 22" stroke="#123D2A" stroke-width="1.4" fill="none" stroke-linecap="round"/>
    </g>

    <!-- Row 2 -->
    <g transform="translate(110 190) rotate(75) scale(0.95)">
      <path d="M0 0 C 26 -14 50 -10 60 18 C 50 46 26 50 0 36 C -8 24 -8 12 0 0 Z" fill="url(#leafFillSage)"/>
      <path d="M2 6 C 20 8 38 14 54 22" stroke="#1E6F43" stroke-width="1.4" fill="none" stroke-linecap="round"/>
    </g>
    <g transform="translate(290 180) rotate(-110)">
      <path d="M0 0 C 26 -14 50 -10 60 18 C 50 46 26 50 0 36 C -8 24 -8 12 0 0 Z" fill="url(#leafFill)"/>
      <path d="M2 6 C 20 8 38 14 54 22" stroke="#123D2A" stroke-width="1.4" fill="none" stroke-linecap="round"/>
    </g>
    <g transform="translate(460 200) rotate(15) scale(0.85)">
      <path d="M0 0 C 26 -14 50 -10 60 18 C 50 46 26 50 0 36 C -8 24 -8 12 0 0 Z" fill="url(#leafFillGold)"/>
      <path d="M2 6 C 20 8 38 14 54 22" stroke="#B0852F" stroke-width="1.4" fill="none" stroke-linecap="round"/>
    </g>

    <!-- Row 3 -->
    <g transform="translate(50 320) rotate(150) scale(0.9)">
      <path d="M0 0 C 26 -14 50 -10 60 18 C 50 46 26 50 0 36 C -8 24 -8 12 0 0 Z" fill="url(#leafFillGold)"/>
      <path d="M2 6 C 20 8 38 14 54 22" stroke="#B0852F" stroke-width="1.4" fill="none" stroke-linecap="round"/>
    </g>
    <g transform="translate(220 330) rotate(-35) scale(0.95)">
      <path d="M0 0 C 26 -14 50 -10 60 18 C 50 46 26 50 0 36 C -8 24 -8 12 0 0 Z" fill="url(#leafFill)"/>
      <path d="M2 6 C 20 8 38 14 54 22" stroke="#123D2A" stroke-width="1.4" fill="none" stroke-linecap="round"/>
    </g>
    <g transform="translate(400 310) rotate(95)">
      <path d="M0 0 C 26 -14 50 -10 60 18 C 50 46 26 50 0 36 C -8 24 -8 12 0 0 Z" fill="url(#leafFillSage)"/>
      <path d="M2 6 C 20 8 38 14 54 22" stroke="#1E6F43" stroke-width="1.4" fill="none" stroke-linecap="round"/>
    </g>
    <g transform="translate(540 350) rotate(-15) scale(0.8)">
      <path d="M0 0 C 26 -14 50 -10 60 18 C 50 46 26 50 0 36 C -8 24 -8 12 0 0 Z" fill="url(#leafFill)"/>
      <path d="M2 6 C 20 8 38 14 54 22" stroke="#123D2A" stroke-width="1.4" fill="none" stroke-linecap="round"/>
    </g>

    <!-- Row 4 -->
    <g transform="translate(120 460) rotate(40) scale(0.85)">
      <path d="M0 0 C 26 -14 50 -10 60 18 C 50 46 26 50 0 36 C -8 24 -8 12 0 0 Z" fill="url(#leafFill)"/>
      <path d="M2 6 C 20 8 38 14 54 22" stroke="#123D2A" stroke-width="1.4" fill="none" stroke-linecap="round"/>
    </g>
    <g transform="translate(300 470) rotate(-80) scale(0.95)">
      <path d="M0 0 C 26 -14 50 -10 60 18 C 50 46 26 50 0 36 C -8 24 -8 12 0 0 Z" fill="url(#leafFillGold)"/>
      <path d="M2 6 C 20 8 38 14 54 22" stroke="#B0852F" stroke-width="1.4" fill="none" stroke-linecap="round"/>
    </g>
    <g transform="translate(470 450) rotate(130) scale(0.9)">
      <path d="M0 0 C 26 -14 50 -10 60 18 C 50 46 26 50 0 36 C -8 24 -8 12 0 0 Z" fill="url(#leafFillSage)"/>
      <path d="M2 6 C 20 8 38 14 54 22" stroke="#1E6F43" stroke-width="1.4" fill="none" stroke-linecap="round"/>
    </g>

    <!-- Row 5 -->
    <g transform="translate(60 560) rotate(-60) scale(0.8)">
      <path d="M0 0 C 26 -14 50 -10 60 18 C 50 46 26 50 0 36 C -8 24 -8 12 0 0 Z" fill="url(#leafFillSage)"/>
      <path d="M2 6 C 20 8 38 14 54 22" stroke="#1E6F43" stroke-width="1.4" fill="none" stroke-linecap="round"/>
    </g>
    <g transform="translate(240 555) rotate(20) scale(0.9)">
      <path d="M0 0 C 26 -14 50 -10 60 18 C 50 46 26 50 0 36 C -8 24 -8 12 0 0 Z" fill="url(#leafFill)"/>
      <path d="M2 6 C 20 8 38 14 54 22" stroke="#123D2A" stroke-width="1.4" fill="none" stroke-linecap="round"/>
    </g>
    <g transform="translate(420 565) rotate(-130) scale(0.85)">
      <path d="M0 0 C 26 -14 50 -10 60 18 C 50 46 26 50 0 36 C -8 24 -8 12 0 0 Z" fill="url(#leafFillGold)"/>
      <path d="M2 6 C 20 8 38 14 54 22" stroke="#B0852F" stroke-width="1.4" fill="none" stroke-linecap="round"/>
    </g>
    <g transform="translate(545 545) rotate(70) scale(0.75)">
      <path d="M0 0 C 26 -14 50 -10 60 18 C 50 46 26 50 0 36 C -8 24 -8 12 0 0 Z" fill="url(#leafFill)"/>
      <path d="M2 6 C 20 8 38 14 54 22" stroke="#123D2A" stroke-width="1.4" fill="none" stroke-linecap="round"/>
    </g>
  </g>
</svg>
